<svg xmlns="http://www.w3.org/2000/svg" viewBox="0 0 200 200" role="img" aria-label="ClawPulse logo">
  <defs>
    <linearGradient id="crest" x1="0" y1="0" x2="1" y2="1">
      <stop offset="0" stop-color="#b52b2b"/>
      <stop offset="1" stop-color="#7e1212"/>
    </linearGradient>
  </defs>
  <circle cx="100" cy="100" r="92" fill="#0b0d12"/>
  <path d="M100 16c-30 8-56 32-62 66-8 45 22 86 62 102 40-16 70-57 62-102-6-34-32-58-62-66z" fill="url(#crest)"/>
  <path d="M52 86c10-26 32-44 48-44 16 0 38 18 48 44-16-10-30-14-48-14-18 0-32 4-48 14z" fill="#4d0c0c"/>
  <path d="M76 92c-8 8-12 18-12 28 0 12 4 22 10 30-16-10-28-30-26-52 1-10 5-18 10-24 6 6 12 12 18 18z" fill="#6f1414"/>
  <path d="M124 92c8 8 12 18 12 28 0 12-4 22-10 30 16-10 28-30 26-52-1-10-5-18-10-24-6 6-12 12-18 18z" fill="#6f1414"/>
  <path d="M100 98c-10 0-20 6-24 14 8 4 16 6 24 6 8 0 16-2 24-6-4-8-14-14-24-14z" fill="#0b0d12"/>
  <path d="M100 110c-6 0-10 4-10 9 0 4 3 7 6 10l4 4 4-4c3-3 6-6 6-10 0-5-4-9-10-9z" fill="#d3d5db"/>
  <path d="M70 78c8-6 18-10 30-10 12 0 22 4 30 10-6 2-12 4-16 6-4-4-8-6-14-6s-10 2-14 6c-4-2-10-4-16-6z" fill="#11151d"/>
  <circle cx="78" cy="86" r="6" fill="#d3d5db"/>
  <circle cx="122" cy="86" r="6" fill="#d3d5db"/>
</svg>
